<?xml version="1.0" encoding="utf-8"?>
<!-- Generator: Adobe Illustrator 22.1.0, SVG Export Plug-In . SVG Version: 6.00 Build 0)  -->
<svg version="1.1" id="Layer_1" xmlns="http://www.w3.org/2000/svg" xmlns:xlink="http://www.w3.org/1999/xlink" x="0px" y="0px"
	 viewBox="0 0 245 240" style="enable-background:new 0 0 245 240;" xml:space="preserve">
<style type="text/css">
	.st0{fill:#85A0FF;stroke:#FFFFFF;stroke-miterlimit:10;}
	.st1{fill:#FFFFFF;}
</style>
<rect class="st0" width="245" height="240"/>
<path class="st1" d="M167.6,59.1c-7.6,13.1-14.5,20.2-17.2,23.5c-2.7,3.3-3.7,4.5-6.7,8.3c12.7,3.8,17.5,11.8,17.5,11.8
	s-1-0.7-2.8-1.7c-0.1-0.1-0.2-0.2-0.4-0.3c-0.3-0.2-0.6-0.3-0.9-0.5c-2.5-1.4-5-2.5-7.3-3.4c-4.1-1.6-9-3.2-14.7-4.3
	c-3.9-0.7-8.1-1.2-12.6-1.3c-4.5,0-8.7,0.5-12.6,1.3c-5.7,1.1-10.6,2.7-14.7,4.3c-2.3,0.9-4.8,2-7.3,3.4c-0.3,0.2-0.6,0.3-0.9,0.5
	c-0.2,0.1-0.3,0.2-0.4,0.3c-1.8,1-2.8,1.7-2.8,1.7s4.8-8,17.5-11.8c-3-3.8-4-5-6.7-8.3c-2.7-3.3-9.6-10.3-17.2-23.5
	c-3-5.2-13.3,7-13.3,38.7c0,20.7,6.9,41.7,10.7,50.5c6.1,4.4,8.7,5.2,12.4,6.9c10.7,4.7,19.2,6,22.7,6.3c0.6,0.1,1.1,0.2,1.7,0.2
	c3.4,0.4,7.1,0.7,10.9,0.7c3.8,0,7.5-0.3,10.9-0.7c0.6,0,1.1-0.1,1.7-0.2c3.5-0.3,12-1.6,22.7-6.3c3.7-1.7,6.2-2.4,12.4-6.9
	c3.8-8.8,10.7-29.9,10.7-50.5C180.9,66.1,170.6,53.9,167.6,59.1z M104.3,142c-5.7,0-10.2-5-10.2-11.1s4.6-11.1,10.2-11.1
	c5.7,0,10.2,5,10.2,11.1C114.6,137,110,142,104.3,142z M126.2,143.9l-3.1,3.3c-0.3,0.3-0.8,0.3-1,0l-3.1-3.3
	c-0.4-0.5-0.1-1.2,0.5-1.2h6.3C126.3,142.7,126.6,143.4,126.2,143.9z M140.7,142c-5.7,0-10.3-5-10.2-11.1c0-6.1,4.5-11.1,10.2-11.1
	c5.6,0,10.2,5,10.2,11.1S146.4,142,140.7,142z"/>
</svg>
