<?xml version="1.0" encoding="utf-8"?>
<!-- Generator: Adobe Illustrator 22.1.0, SVG Export Plug-In . SVG Version: 6.00 Build 0)  -->
<svg version="1.1" xmlns="http://www.w3.org/2000/svg" xmlns:xlink="http://www.w3.org/1999/xlink" x="0px" y="0px"
	 viewBox="0 0 245 240" style="enable-background:new 0 0 245 240;" xml:space="preserve">
<style type="text/css">
	.st0{fill:#2C2F33;}
	.st1{display:none;}
	.st2{display:inline;fill:none;}
	.st3{display:inline;fill:#FFFFFF;}
	.st4{fill:#FFFFFF;}
</style>
<g id="Calque_2">
	<rect class="st0" width="245" height="240"/>
</g>
<g id="Layer_1">
	<g class="st1">
		<ellipse class="st2" cx="105.3" cy="115" rx="10.2" ry="11.1"/>
		<ellipse class="st2" cx="140.9" cy="115" rx="10.2" ry="11.1"/>
		<path class="st3" d="M130.7,130.7c-0.5,0.2-1,0.4-1.6,0.4c-0.6,0-1.1,0-1.6-0.2c-1-0.3-1.8-0.9-2.4-1.9c-0.6-0.9-1.1-2-1.3-3
			c-0.1-0.4-0.4-0.7-0.8-0.8c-0.5-0.1-1.1,0.2-1.2,0.8c-0.2,1-0.7,2.2-1.3,3c-0.6,0.9-1.4,1.6-2.4,1.9c-0.5,0.1-1.1,0.2-1.6,0.2
			c-0.6,0-1.1-0.1-1.6-0.4c-1-0.4-1.9-1.4-2.4-2.6c0.1,1.3,0.7,2.6,1.8,3.4c0.6,0.4,1.2,0.7,1.9,0.8c0.7,0.2,1.4,0.2,2.1,0.1
			c1.5-0.2,2.8-1.2,3.6-2.3c0.7-0.9,0.8-1.1,0.8-1.2c0,0,0,0,0,0s0,0,0,0c0,0.1,0.1,0.3,0.8,1.2c0.8,1.1,2.1,2.1,3.6,2.3
			c0.7,0.1,1.4,0.1,2.1-0.1c0.7-0.1,1.4-0.4,1.9-0.8c1.1-0.8,1.8-2.1,1.8-3.4C132.6,129.3,131.8,130.3,130.7,130.7z"/>
		<path class="st3" d="M122.8,129C122.8,129,122.8,129,122.8,129C122.8,129,122.8,129,122.8,129z"/>
		<path class="st3" d="M151.4,125.6c-0.6,0.1-1.2,0.2-1.9,0.4c-0.6,0.2-1.2,0.5-1.8,1c0.7,0.4,1.3,0.5,2,0.6c0.6,0.1,1.3,0.1,1.9,0
			c0.6-0.1,1.2-0.2,1.9-0.4c0.6-0.2,1.2-0.5,1.8-1c-0.7-0.4-1.3-0.5-2-0.6C152.6,125.6,152,125.6,151.4,125.6z"/>
		<path class="st3" d="M151.7,128.8c-0.6-0.1-1.2-0.2-1.9-0.2c-0.6,0-1.3,0.1-2,0.4c0.5,0.5,1.1,0.9,1.7,1.1
			c0.6,0.3,1.2,0.5,1.8,0.6c0.6,0.1,1.2,0.2,1.9,0.2c0.6,0,1.3-0.1,2-0.4c-0.5-0.5-1.1-0.9-1.7-1.1
			C152.9,129.1,152.3,128.9,151.7,128.8z"/>
		<path class="st3" d="M94.2,125.6c-0.6-0.1-1.3-0.1-1.9,0c-0.6,0.1-1.3,0.2-2,0.6c0.6,0.5,1.2,0.8,1.8,1c0.6,0.2,1.2,0.3,1.9,0.4
			c0.6,0.1,1.3,0.1,1.9,0c0.6-0.1,1.3-0.2,2-0.6c-0.6-0.5-1.2-0.7-1.8-1C95.5,125.8,94.9,125.7,94.2,125.6z"/>
		<path class="st3" d="M93.9,128.8c-0.6,0.1-1.2,0.3-1.8,0.6c-0.6,0.3-1.2,0.6-1.7,1.1c0.7,0.3,1.4,0.4,2,0.4c0.6,0,1.3,0,1.9-0.2
			c0.6-0.1,1.2-0.3,1.8-0.6c0.6-0.3,1.2-0.6,1.7-1.1c-0.7-0.3-1.4-0.4-2-0.4C95.2,128.6,94.6,128.7,93.9,128.8z"/>
	</g>
	<path class="st4" d="M199.4,105.1c-2-5.4-3.4-10.9-4.3-16.6c-2.6-16.2-8.5-33.2-11.9-42.5c-1.4-3.7-5.9-5-9.1-2.7
		c-9.5,6.9-27.3,20.7-36.7,33.1c-4.2-0.5-9.6-0.8-14.3-0.8c-4.6,0-10.1,0.3-14.3,0.8c-9.4-12.4-27.2-26.2-36.7-33.1
		c-3.2-2.3-7.7-1-9.1,2.7c-3.5,9.3-9.3,26.3-11.9,42.5c-0.9,5.7-2.3,11.2-4.3,16.6c-6.2,16.4-13.3,41.5-13.3,69.6
		c0,0,13,22.2,46.9,23.3c0,0,5.5-6.6,10.1-12.4c-20.1-5.7-27.8-18.3-27.8-18.3c6.3,4.1,12.3,7.1,17.6,9c7.7,3.2,15,5.4,22.2,6.6
		c7.1,1.3,13.9,1.8,20.4,1.8c6.5,0.1,13.3-0.4,20.4-1.8c7.2-1.2,14.6-3.4,22.2-6.6c5.4-2,11.3-4.9,17.6-9c0,0-7.7,12.6-27.8,18.3
		c4.6,5.8,10.1,12.4,10.1,12.4c33.9-1.1,46.9-23.3,46.9-23.3C212.7,146.5,205.5,121.4,199.4,105.1z M81.7,166.6
		c-0.9,0.4-1.8,0.7-2.8,0.9c-0.9,0.2-1.9,0.3-2.9,0.2c-1,0-2-0.2-3.1-0.6c0.8-0.8,1.7-1.3,2.6-1.7c0.9-0.4,1.8-0.7,2.8-0.9
		c0.9-0.2,1.9-0.3,2.9-0.2c1,0.1,2,0.2,3.1,0.6C83.5,165.7,82.6,166.2,81.7,166.6z M81.4,162.6c-1,0.1-1.9,0.1-2.9,0
		c-1-0.1-1.9-0.3-2.8-0.6c-0.9-0.3-1.9-0.8-2.7-1.5c1-0.5,2-0.8,3-0.9c1-0.1,1.9-0.1,2.9,0c1,0.1,1.9,0.3,2.8,0.6
		c0.9,0.3,1.9,0.8,2.8,1.5C83.4,162.3,82.4,162.5,81.4,162.6z M95.8,160.3c-8.7,0-15.6-7.7-15.6-17c0-9.4,6.9-17,15.6-17
		c8.7,0,15.6,7.7,15.6,17C111.4,152.7,104.4,160.3,95.8,160.3z M135.6,168.8c-0.9,0.6-1.9,1.1-2.9,1.3c-1,0.2-2.1,0.2-3.2,0.1
		c-2.3-0.3-4.3-1.8-5.6-3.5c-1-1.3-1.1-1.7-1.2-1.8c0,0.1-0.1,0.4-1.2,1.8c-1.3,1.7-3.3,3.2-5.6,3.5c-1.1,0.1-2.2,0.1-3.2-0.1
		c-1-0.2-2.1-0.6-2.9-1.3c-1.7-1.3-2.7-3.3-2.8-5.2c0.7,1.8,2,3.3,3.6,3.9c0.8,0.4,1.6,0.6,2.5,0.6c0.9,0.1,1.7,0,2.5-0.2
		c1.5-0.5,2.8-1.5,3.7-2.9c0.9-1.3,1.7-3.1,2-4.7c0.2-0.8,1-1.4,1.8-1.2c0.6,0.1,1,0.6,1.2,1.2c0.3,1.6,1.1,3.3,2,4.7
		c0.9,1.4,2.2,2.4,3.7,2.9c0.8,0.2,1.6,0.3,2.5,0.2c0.9,0,1.7-0.2,2.5-0.6c1.6-0.7,2.9-2.2,3.6-3.9
		C138.3,165.5,137.3,167.5,135.6,168.8z M134.8,143.3c0-9.4,6.9-17,15.6-17c8.7,0,15.6,7.7,15.6,17c0,9.4-6.9,17-15.6,17
		C141.8,160.3,134.8,152.7,134.8,143.3z M169.2,167.8c-1,0-2-0.1-2.9-0.2c-0.9-0.2-1.9-0.5-2.8-0.9c-0.9-0.4-1.8-0.9-2.6-1.7
		c1.1-0.4,2.1-0.6,3.1-0.6c1,0,2,0.1,2.9,0.2c0.9,0.2,1.9,0.5,2.8,0.9c0.9,0.4,1.8,0.9,2.6,1.7C171.2,167.6,170.2,167.7,169.2,167.8
		z M169.6,162.1c-0.9,0.3-1.9,0.5-2.8,0.6c-1,0.1-1.9,0.1-2.9,0c-1-0.1-2-0.4-3-0.9c0.9-0.7,1.8-1.1,2.8-1.5
		c0.9-0.3,1.9-0.5,2.8-0.6c1-0.1,1.9-0.1,2.9,0c1,0.1,2,0.4,3,0.9C171.5,161.3,170.6,161.7,169.6,162.1z"/>
</g>
</svg>
