<?xml version="1.0" encoding="utf-8"?>
<!-- Generator: Adobe Illustrator 16.0.0, SVG Export Plug-In . SVG Version: 6.00 Build 0)  -->
<!DOCTYPE svg PUBLIC "-//W3C//DTD SVG 1.1//EN" "http://www.w3.org/Graphics/SVG/1.1/DTD/svg11.dtd">
<svg version="1.1" xmlns="http://www.w3.org/2000/svg" xmlns:xlink="http://www.w3.org/1999/xlink" x="0px" y="0px" width="272px"
	 height="222px" viewBox="0 0 272 222" enable-background="new 0 0 272 222" xml:space="preserve">
<g id="Background">
	<defs>
		<filter id="Adobe_OpacityMaskFilter" filterUnits="userSpaceOnUse" x="0" y="25.977" width="271.217" height="186.601">
			<feColorMatrix  type="matrix" values="1 0 0 0 0  0 1 0 0 0  0 0 1 0 0  0 0 0 1 0"/>
		</filter>
	</defs>
	<mask maskUnits="userSpaceOnUse" x="0" y="25.977" width="271.217" height="186.601" id="b">
		<g filter="url(#Adobe_OpacityMaskFilter)">
			<polygon id="a" fill="#FFFFFF" points="0,25.976 0,212.577 271.217,212.577 271.217,25.976 			"/>
		</g>
	</mask>
	<path mask="url(#b)" fill="#4F545C" fill-opacity="0.3" d="M240.914,59.977L240.914,59.977c0,18.778-15.223,34-34,34h-17.805
		c-11.184,0-20.25,9.065-20.25,20.249c0,11.182,9.066,20.247,20.25,20.247h43.055c21.568,0,39.053,17.484,39.053,39.053
		s-17.484,39.052-39.053,39.052H26.945C12.064,212.577,0,200.514,0,185.633c0-14.883,12.064-26.945,26.945-26.945h13.062
		c22.825,0,41.329-18.504,41.329-41.33V67.306c0-22.826,18.504-41.33,41.329-41.33h84.249
		C225.691,25.977,240.914,41.198,240.914,59.977"/>
</g>
<g id="Maketto">
	<circle fill="#85A0FF" cx="135.608" cy="103.134" r="93.216"/>
	<g>
		<polyline fill="none" stroke="#1F2225" stroke-width="2" stroke-linecap="round" stroke-miterlimit="10" points="117.358,134.834 
			135.608,143.667 153.858,134.834 		"/>
		
			<line fill="none" stroke="#1F2225" stroke-width="2" stroke-linecap="round" stroke-miterlimit="10" x1="135.608" y1="115.041" x2="135.608" y2="81.5"/>
		<circle fill="#1F2225" cx="180.096" cy="98.888" r="9.695"/>
		<circle fill="#1F2225" cx="90.863" cy="98.888" r="9.695"/>
		
			<circle fill="none" stroke="#1F2225" stroke-width="2" stroke-linecap="round" stroke-miterlimit="10" cx="90.863" cy="98.889" r="20.388"/>
		
			<circle fill="none" stroke="#1F2225" stroke-width="2" stroke-linecap="round" stroke-miterlimit="10" cx="180.096" cy="98.889" r="20.388"/>
	</g>
</g>
<g id="Lines">
	<g>
		<path fill="none" stroke="#1F2225" stroke-width="2" stroke-linecap="round" stroke-miterlimit="10" d="M223.992,132.894
			c-2.563,7.61-6.08,14.782-10.41,21.371"/>
		<g>
			<g>
				<g>
					<g>
						<path fill="none" stroke="#1F2225" stroke-width="2" stroke-linecap="round" stroke-miterlimit="10" d="M214.078,153.501
							c-0.541,0.842-1.096,1.674-1.663,2.497"/>
						
							<path fill="none" stroke="#1F2225" stroke-width="2" stroke-linecap="round" stroke-miterlimit="10" stroke-dasharray="6.2637,6.2637" d="
							M208.688,161.031c-1.949,2.457-4.02,4.813-6.202,7.059"/>
						<path fill="none" stroke="#1F2225" stroke-width="2" stroke-linecap="round" stroke-miterlimit="10" d="M200.265,170.3
							c-0.72,0.693-1.451,1.374-2.192,2.044"/>
					</g>
				</g>
				<g>
					<g>
						<path fill="none" stroke="#1F2225" stroke-width="2" stroke-linecap="round" stroke-miterlimit="10" d="M226.64,123.379
							c-0.181,0.815-0.372,1.626-0.573,2.434"/>
						<path fill="none" stroke="#1F2225" stroke-width="2" stroke-linecap="round" stroke-miterlimit="10" d="M224.529,131.25
							c-0.251,0.796-0.513,1.587-0.785,2.373"/>
					</g>
				</g>
				<g>
					<g>
						<path fill="none" stroke="#1F2225" stroke-width="2" stroke-linecap="round" stroke-miterlimit="10" d="M169.478,16.255
							c0.933,0.364,1.858,0.742,2.777,1.135"/>
						
							<path fill="none" stroke="#1F2225" stroke-width="2" stroke-linecap="round" stroke-miterlimit="10" stroke-dasharray="4.1767,4.1767" d="
							M176.057,19.119c1.887,0.91,3.739,1.881,5.553,2.911"/>
						<path fill="none" stroke="#1F2225" stroke-width="2" stroke-linecap="round" stroke-miterlimit="10" d="M183.409,23.08
							c0.859,0.514,1.709,1.041,2.55,1.581"/>
					</g>
				</g>
				<g>
					<g>
						<path fill="none" stroke="#1F2225" stroke-width="2" stroke-linecap="round" stroke-miterlimit="10" d="M43.292,115.994
							c-0.136-0.987-0.257-1.98-0.362-2.978"/>
						
							<path fill="none" stroke="#1F2225" stroke-width="2" stroke-linecap="round" stroke-miterlimit="10" stroke-dasharray="4.3202,4.3202" d="
							M42.576,108.711c-0.109-1.845-0.164-3.704-0.164-5.576c0-0.302,0.001-0.604,0.004-0.905"/>
						<path fill="none" stroke="#1F2225" stroke-width="2" stroke-linecap="round" stroke-miterlimit="10" d="M42.461,100.071
							c0.033-1.003,0.081-2.002,0.145-2.997"/>
					</g>
				</g>
			</g>
			<path fill="none" stroke="#1F2225" stroke-width="2" stroke-linecap="round" stroke-miterlimit="10" d="M42.562,97.816
				c2.756-49.008,43.37-87.898,93.066-87.898c12.232,0,23.915,2.356,34.618,6.64"/>
			<path fill="none" stroke="#1F2225" stroke-width="2" stroke-linecap="round" stroke-miterlimit="10" d="M198.567,171.895
				c-16.583,15.188-38.679,24.456-62.939,24.456c-47.448,0-86.616-35.45-92.462-81.31"/>
			<path fill="none" stroke="#1F2225" stroke-width="2" stroke-linecap="round" stroke-miterlimit="10" d="M185.239,24.203
				c26.198,16.501,43.604,45.683,43.604,78.932c0,7.186-0.813,14.182-2.353,20.902"/>
		</g>
	</g>
	<path fill="#1F2225" d="M239.688,100.322L239.688,100.322c-0.834,0-1.51-0.676-1.51-1.51c0-0.553-0.447-1-1-1s-1,0.447-1,1
		c0,0.834-0.677,1.51-1.51,1.51c-0.552,0-1,0.447-1,1c0,0.553,0.448,1,1,1c0.833,0,1.51,0.676,1.51,1.51c0,0.552,0.447,1,1,1
		s1-0.448,1-1c0-0.834,0.676-1.51,1.51-1.51l0,0c0.553,0,1-0.447,1-1C240.688,100.77,240.24,100.322,239.688,100.322 M21.521,111.88
		L21.521,111.88c-0.834,0-1.51-0.676-1.51-1.51c0-0.553-0.448-1-1-1c-0.553,0-1,0.447-1,1c0,0.834-0.676,1.51-1.51,1.51
		c-0.552,0-1,0.447-1,1c0,0.554,0.448,1,1,1c0.834,0,1.51,0.677,1.51,1.511c0,0.551,0.447,1,1,1c0.552,0,1-0.449,1-1
		c0-0.834,0.676-1.511,1.51-1.511l0,0c0.552,0,1-0.446,1-1C22.521,112.327,22.073,111.88,21.521,111.88 M34.93,82.313
		c0.256,0,0.512-0.098,0.707-0.293l1.184-1.183c0.39-0.389,0.39-1.023,0-1.414c-0.391-0.39-1.024-0.39-1.414,0l-1.184,1.183
		c-0.391,0.39-0.391,1.023-0.001,1.414C34.418,82.215,34.674,82.313,34.93,82.313 M29.014,88.229c0.256,0,0.512-0.098,0.707-0.293
		l1.183-1.184c0.391-0.39,0.391-1.023,0-1.414c-0.39-0.39-1.024-0.39-1.414,0l-1.183,1.184c-0.391,0.391-0.391,1.023,0,1.414
		C28.502,88.132,28.758,88.229,29.014,88.229 M35.637,85.339c-0.391-0.391-1.023-0.391-1.414,0c-0.391,0.391-0.391,1.023,0,1.414
		l1.184,1.184c0.195,0.195,0.451,0.293,0.707,0.293c0.255,0,0.511-0.098,0.707-0.293c0.39-0.391,0.39-1.024,0-1.414L35.637,85.339z
		 M29.49,82.02c0.195,0.195,0.451,0.293,0.707,0.293c0.256,0,0.512-0.098,0.707-0.293c0.391-0.391,0.391-1.023,0-1.414l-1.183-1.183
		c-0.391-0.39-1.024-0.39-1.414,0c-0.391,0.391-0.391,1.024,0,1.414L29.49,82.02z M247.563,73.244c0.834,0,1.511,0.678,1.511,1.51
		c0,0.833-0.677,1.511-1.511,1.511c-0.832,0-1.51-0.678-1.51-1.511C246.053,73.922,246.73,73.244,247.563,73.244 M247.563,78.265
		c1.936,0,3.511-1.576,3.511-3.511c0-1.936-1.575-3.51-3.511-3.51s-3.51,1.574-3.51,3.51
		C244.053,76.689,245.627,78.265,247.563,78.265"/>
</g>
</svg>
