<?xml version="1.0" encoding="utf-8"?>
<!-- Generator: Adobe Illustrator 22.1.0, SVG Export Plug-In . SVG Version: 6.00 Build 0)  -->
<svg version="1.1" xmlns="http://www.w3.org/2000/svg" xmlns:xlink="http://www.w3.org/1999/xlink" x="0px" y="0px"
	 viewBox="0 0 125 120" style="enable-background:new 0 0 125 120;" xml:space="preserve">
<style type="text/css">
	.st0{fill:#44537F;}
	.st1{fill:none;stroke:#22293F;stroke-width:3;stroke-linecap:round;stroke-linejoin:round;}
	.st2{fill:#22293F;}
	.st3{display:none;}
</style>
<g id="Calque_1">
	<path class="st0" d="M61.9,113c31.7,0,52.6-15.3,57.3-27.3s-6.8-35-6.8-35s2-19.3-0.5-21.5c-1.5-1.3-6.6-1.2-12.2,0.9
		c-3.7,1.4-7.7,3.7-11,7.1c-8-8.5-26.8-8.6-26.8-8.6h0.1c0,0-18.8,0.1-26.8,8.6C27,28.7,14.5,27,12,29.2s-0.5,21.5-0.5,21.5
		s-11.5,23-6.8,35S30.4,113,62.1,113"/>
	<path class="st1" d="M100.7,29.8c5.3-1.8,10-1.8,11.4-0.6c2.5,2.2,0.5,21.5,0.5,21.5s11.5,23,6.8,35S93.7,113,62,113h0.1
		C30.4,113,9.6,97.8,4.8,85.8s6.8-35,6.8-35s-2-19.3,0.5-21.5s15-0.5,23.3,8c8-8.5,26.8-8.6,26.8-8.6H62"/>
	<path class="st2" d="M39.8,75c0,3.1-2.5,5.6-5.6,5.6c-3.1,0-5.6-2.5-5.6-5.6s2.5-5.6,5.6-5.6C37.3,69.4,39.8,71.9,39.8,75 M95.5,75
		c0,3.1-2.5,5.6-5.6,5.6c-3.1,0-5.6-2.5-5.6-5.6s2.5-5.6,5.6-5.6C93,69.4,95.5,71.9,95.5,75"/>
	<path class="st1" d="M70.1,94.8l-8-3.9l-8,3.9"/>
	<g>
		<path class="st0" d="M79,34.5L64.2,46.4c-0.9,0.7-2.1-0.5-1.4-1.4l5.3-6.5l6.7-8.3 M101,12.3l6.1,6.1c0.4,0.4,0.4,1,0,1.4
			l-1.4,1.4c-1.5,1.5-4.1,1.5-5.6,0L88.1,9.3c-1.6-1.5-1.6-4.1,0-5.6l1.4-1.4c0.4-0.4,1-0.4,1.4,0l3.6,3.6"/>
		<path class="st0" d="M81.8,37.3L67.4,22.9c-0.4-0.4-0.4-1,0-1.4l1.1-1c3.1-3.1,8.1-3.1,11.2,0l9.1,9.1c3.1,3.1,3.1,8.1,0,11.2
			l-1.1,1c-0.4,0.4-1,0.4-1.4,0l-2-2"/>
		<path class="st0" d="M88.5,29.2l-8.4-8.4l9.8-9.8l8.4,8.4"/>
		<path class="st1" d="M101,12.3l6.1,6.1c0.4,0.4,0.4,1,0,1.4l-1.4,1.4c-1.5,1.5-4.1,1.5-5.6,0L88.1,9.3c-1.6-1.5-1.6-4.1,0-5.6
			l1.4-1.4c0.4-0.4,1-0.4,1.4,0l3.6,3.6 M81.8,37.3L67.4,22.9c-0.4-0.4-0.4-1,0-1.4l1.1-1c3.1-3.1,8.1-3.1,11.2,0l9.1,9.1
			c3.1,3.1,3.1,8.1,0,11.2l-1.1,1c-0.4,0.4-1,0.4-1.4,0l-2-2 M80.1,20.8l9.8-9.8 M98.3,19.4l-9.8,9.8"/>
		<path class="st1" d="M74.8,30.3L62.9,45c-0.8,0.9,0.5,2.1,1.4,1.4L79,34.5"/>
	</g>
</g>
<g id="Calque_2" class="st3">
	
		<image style="display:inline;overflow:visible;opacity:0.7;" width="456" height="290" xlink:href="C:\Users\azagwen\Desktop\neko_variantsaltposesfeat.jpg"  transform="matrix(1.4901 0.2586 -0.2586 1.4901 -245.1779 -134.3068)">
	</image>
</g>
</svg>
